<mxfile host="app.diagrams.net" modified="2020-11-15T11:26:32.358Z" agent="5.0 (Macintosh; Intel Mac OS X 10_14_6) AppleWebKit/537.36 (KHTML, like Gecko) Chrome/86.0.4240.183 Safari/537.36 OPR/72.0.3815.320" etag="XWQHZuV5ozIiGJ3A8QBN" version="13.9.3" type="github">
  <diagram id="NyFHBG3tS3DJJaAHor2m" name="Page-1">
    <mxGraphModel dx="2464" dy="2062" grid="1" gridSize="10" guides="1" tooltips="1" connect="1" arrows="1" fold="1" page="1" pageScale="1" pageWidth="827" pageHeight="1169" math="0" shadow="0">
      <root>
        <mxCell id="0" />
        <mxCell id="1" parent="0" />
        <mxCell id="523bSIM_VYliNhW8W_xu-4" value="Web Application&amp;nbsp;&lt;br&gt;Gateway" style="rounded=0;whiteSpace=wrap;html=1;" parent="1" vertex="1">
          <mxGeometry x="290" y="-120" width="120" height="1200" as="geometry" />
        </mxCell>
        <mxCell id="523bSIM_VYliNhW8W_xu-5" value="user&lt;br&gt;" style="shape=umlActor;verticalLabelPosition=bottom;verticalAlign=top;html=1;outlineConnect=0;" parent="1" vertex="1">
          <mxGeometry x="-260" y="80" width="30" height="60" as="geometry" />
        </mxCell>
        <mxCell id="523bSIM_VYliNhW8W_xu-6" value="" style="verticalLabelPosition=bottom;verticalAlign=top;html=1;shadow=0;dashed=0;strokeWidth=1;shape=mxgraph.android.phone2;strokeColor=#c0c0c0;" parent="1" vertex="1">
          <mxGeometry x="-135" y="30" width="80" height="130" as="geometry" />
        </mxCell>
        <mxCell id="523bSIM_VYliNhW8W_xu-47" style="edgeStyle=orthogonalEdgeStyle;rounded=0;orthogonalLoop=1;jettySize=auto;html=1;" parent="1" source="523bSIM_VYliNhW8W_xu-7" target="523bSIM_VYliNhW8W_xu-46" edge="1">
          <mxGeometry relative="1" as="geometry" />
        </mxCell>
        <mxCell id="523bSIM_VYliNhW8W_xu-7" value="Mobile/ Web app" style="text;html=1;align=center;verticalAlign=middle;resizable=0;points=[];autosize=1;" parent="1" vertex="1">
          <mxGeometry x="-150" y="170" width="110" height="20" as="geometry" />
        </mxCell>
        <mxCell id="523bSIM_VYliNhW8W_xu-9" value="" style="endArrow=classic;startArrow=classic;html=1;" parent="1" edge="1">
          <mxGeometry width="50" height="50" relative="1" as="geometry">
            <mxPoint x="-200" y="108.33" as="sourcePoint" />
            <mxPoint x="-140" y="108.33" as="targetPoint" />
          </mxGeometry>
        </mxCell>
        <mxCell id="523bSIM_VYliNhW8W_xu-10" value="" style="endArrow=classic;startArrow=classic;html=1;" parent="1" edge="1">
          <mxGeometry width="50" height="50" relative="1" as="geometry">
            <mxPoint y="110" as="sourcePoint" />
            <mxPoint x="270" y="110" as="targetPoint" />
          </mxGeometry>
        </mxCell>
        <mxCell id="523bSIM_VYliNhW8W_xu-11" value="Agent" style="shape=umlActor;verticalLabelPosition=bottom;verticalAlign=top;html=1;outlineConnect=0;" parent="1" vertex="1">
          <mxGeometry x="-260" y="350" width="30" height="60" as="geometry" />
        </mxCell>
        <mxCell id="523bSIM_VYliNhW8W_xu-13" value="" style="verticalLabelPosition=bottom;verticalAlign=top;html=1;shadow=0;dashed=0;strokeWidth=1;shape=mxgraph.android.phone2;strokeColor=#c0c0c0;" parent="1" vertex="1">
          <mxGeometry x="-170" y="340" width="80" height="130" as="geometry" />
        </mxCell>
        <mxCell id="523bSIM_VYliNhW8W_xu-15" value="" style="endArrow=classic;startArrow=classic;html=1;" parent="1" edge="1">
          <mxGeometry width="50" height="50" relative="1" as="geometry">
            <mxPoint x="-230" y="389.99999999999994" as="sourcePoint" />
            <mxPoint x="-170" y="389.99999999999994" as="targetPoint" />
          </mxGeometry>
        </mxCell>
        <mxCell id="523bSIM_VYliNhW8W_xu-16" value="" style="endArrow=classic;startArrow=classic;html=1;" parent="1" edge="1">
          <mxGeometry width="50" height="50" relative="1" as="geometry">
            <mxPoint x="110" y="400" as="sourcePoint" />
            <mxPoint x="275" y="399.99999999999994" as="targetPoint" />
          </mxGeometry>
        </mxCell>
        <mxCell id="523bSIM_VYliNhW8W_xu-17" value="Mobile/ Web app" style="text;html=1;align=center;verticalAlign=middle;resizable=0;points=[];autosize=1;" parent="1" vertex="1">
          <mxGeometry x="-192.5" y="485" width="110" height="20" as="geometry" />
        </mxCell>
        <mxCell id="523bSIM_VYliNhW8W_xu-19" value="" style="endArrow=classic;startArrow=classic;html=1;entryX=0;entryY=0.5;entryDx=0;entryDy=0;" parent="1" target="523bSIM_VYliNhW8W_xu-49" edge="1">
          <mxGeometry width="50" height="50" relative="1" as="geometry">
            <mxPoint x="410" y="440" as="sourcePoint" />
            <mxPoint x="550" y="450" as="targetPoint" />
          </mxGeometry>
        </mxCell>
        <mxCell id="523bSIM_VYliNhW8W_xu-20" value="Agent Req" style="text;html=1;align=center;verticalAlign=middle;resizable=0;points=[];autosize=1;" parent="1" vertex="1">
          <mxGeometry x="450" y="410" width="70" height="20" as="geometry" />
        </mxCell>
        <mxCell id="523bSIM_VYliNhW8W_xu-21" value="" style="endArrow=classic;startArrow=classic;html=1;" parent="1" edge="1">
          <mxGeometry width="50" height="50" relative="1" as="geometry">
            <mxPoint x="420" y="109.7" as="sourcePoint" />
            <mxPoint x="580" y="109.29" as="targetPoint" />
          </mxGeometry>
        </mxCell>
        <mxCell id="523bSIM_VYliNhW8W_xu-22" value="User Req" style="text;html=1;align=center;verticalAlign=middle;resizable=0;points=[];autosize=1;" parent="1" vertex="1">
          <mxGeometry x="470" y="80" width="70" height="20" as="geometry" />
        </mxCell>
        <mxCell id="523bSIM_VYliNhW8W_xu-23" value="" style="whiteSpace=wrap;html=1;aspect=fixed;" parent="1" vertex="1">
          <mxGeometry x="600" y="30" width="190" height="190" as="geometry" />
        </mxCell>
        <mxCell id="523bSIM_VYliNhW8W_xu-24" value="Insurance Service" style="rounded=0;whiteSpace=wrap;html=1;" parent="1" vertex="1">
          <mxGeometry x="635" y="50" width="120" height="60" as="geometry" />
        </mxCell>
        <mxCell id="523bSIM_VYliNhW8W_xu-25" value="Insurance Service" style="rounded=0;whiteSpace=wrap;html=1;" parent="1" vertex="1">
          <mxGeometry x="635" y="140" width="120" height="60" as="geometry" />
        </mxCell>
        <mxCell id="523bSIM_VYliNhW8W_xu-28" value="" style="endArrow=classic;startArrow=classic;html=1;" parent="1" edge="1">
          <mxGeometry width="50" height="50" relative="1" as="geometry">
            <mxPoint x="827" y="144.81999999999996" as="sourcePoint" />
            <mxPoint x="987" y="144.41" as="targetPoint" />
          </mxGeometry>
        </mxCell>
        <mxCell id="523bSIM_VYliNhW8W_xu-29" value="Insurance Filing Service Cluster" style="text;html=1;align=center;verticalAlign=middle;resizable=0;points=[];autosize=1;" parent="1" vertex="1">
          <mxGeometry x="605" y="240" width="180" height="20" as="geometry" />
        </mxCell>
        <mxCell id="523bSIM_VYliNhW8W_xu-31" style="edgeStyle=orthogonalEdgeStyle;rounded=0;orthogonalLoop=1;jettySize=auto;html=1;" parent="1" edge="1">
          <mxGeometry relative="1" as="geometry">
            <mxPoint x="1050" y="390" as="targetPoint" />
            <mxPoint x="1050" y="280" as="sourcePoint" />
          </mxGeometry>
        </mxCell>
        <mxCell id="523bSIM_VYliNhW8W_xu-54" style="edgeStyle=orthogonalEdgeStyle;rounded=0;orthogonalLoop=1;jettySize=auto;html=1;" parent="1" source="523bSIM_VYliNhW8W_xu-30" edge="1">
          <mxGeometry relative="1" as="geometry">
            <mxPoint x="1270" y="145" as="targetPoint" />
          </mxGeometry>
        </mxCell>
        <mxCell id="523bSIM_VYliNhW8W_xu-30" value="Insurance Database" style="shape=cylinder3;whiteSpace=wrap;html=1;boundedLbl=1;backgroundOutline=1;size=15;" parent="1" vertex="1">
          <mxGeometry x="1000" y="60" width="100" height="170" as="geometry" />
        </mxCell>
        <mxCell id="SMLARcFiEDBZAlFE3PjW-8" style="edgeStyle=orthogonalEdgeStyle;rounded=0;orthogonalLoop=1;jettySize=auto;html=1;entryX=1;entryY=0;entryDx=0;entryDy=75;entryPerimeter=0;" edge="1" parent="1" source="523bSIM_VYliNhW8W_xu-32" target="523bSIM_VYliNhW8W_xu-34">
          <mxGeometry relative="1" as="geometry" />
        </mxCell>
        <mxCell id="523bSIM_VYliNhW8W_xu-32" value="Agent Assignment Service" style="rounded=0;whiteSpace=wrap;html=1;" parent="1" vertex="1">
          <mxGeometry x="1010" y="400" width="140" height="70" as="geometry" />
        </mxCell>
        <mxCell id="SMLARcFiEDBZAlFE3PjW-39" style="edgeStyle=orthogonalEdgeStyle;rounded=0;orthogonalLoop=1;jettySize=auto;html=1;" edge="1" parent="1" source="523bSIM_VYliNhW8W_xu-34" target="SMLARcFiEDBZAlFE3PjW-38">
          <mxGeometry relative="1" as="geometry" />
        </mxCell>
        <mxCell id="523bSIM_VYliNhW8W_xu-34" value="Agent Db" style="shape=cylinder3;whiteSpace=wrap;html=1;boundedLbl=1;backgroundOutline=1;size=15;" parent="1" vertex="1">
          <mxGeometry x="820" y="440" width="100" height="110" as="geometry" />
        </mxCell>
        <mxCell id="523bSIM_VYliNhW8W_xu-42" style="edgeStyle=orthogonalEdgeStyle;rounded=0;orthogonalLoop=1;jettySize=auto;html=1;entryX=0.5;entryY=0;entryDx=0;entryDy=0;" parent="1" source="523bSIM_VYliNhW8W_xu-36" target="523bSIM_VYliNhW8W_xu-43" edge="1">
          <mxGeometry relative="1" as="geometry">
            <mxPoint x="1080.0000000000005" y="570" as="targetPoint" />
          </mxGeometry>
        </mxCell>
        <mxCell id="523bSIM_VYliNhW8W_xu-36" value="Serverless function" style="text;html=1;align=center;verticalAlign=middle;resizable=0;points=[];autosize=1;" parent="1" vertex="1">
          <mxGeometry x="1020" y="470" width="120" height="20" as="geometry" />
        </mxCell>
        <mxCell id="523bSIM_VYliNhW8W_xu-37" value="Cosmo Db" style="text;html=1;align=center;verticalAlign=middle;resizable=0;points=[];autosize=1;" parent="1" vertex="1">
          <mxGeometry x="1015" y="240" width="70" height="20" as="geometry" />
        </mxCell>
        <mxCell id="523bSIM_VYliNhW8W_xu-38" value="Change streams" style="text;html=1;align=center;verticalAlign=middle;resizable=0;points=[];autosize=1;rotation=0;" parent="1" vertex="1">
          <mxGeometry x="1070" y="320" width="100" height="20" as="geometry" />
        </mxCell>
        <mxCell id="523bSIM_VYliNhW8W_xu-44" style="edgeStyle=orthogonalEdgeStyle;rounded=0;orthogonalLoop=1;jettySize=auto;html=1;" parent="1" source="523bSIM_VYliNhW8W_xu-43" target="523bSIM_VYliNhW8W_xu-17" edge="1">
          <mxGeometry relative="1" as="geometry">
            <Array as="points">
              <mxPoint x="1080" y="1140" />
              <mxPoint x="55" y="1140" />
            </Array>
          </mxGeometry>
        </mxCell>
        <mxCell id="523bSIM_VYliNhW8W_xu-43" value="Notification Hub" style="rounded=0;whiteSpace=wrap;html=1;" parent="1" vertex="1">
          <mxGeometry x="970" y="820" width="220" height="60" as="geometry" />
        </mxCell>
        <mxCell id="523bSIM_VYliNhW8W_xu-45" value="Agent Document Verification cluster" style="text;html=1;align=center;verticalAlign=middle;resizable=0;points=[];autosize=1;" parent="1" vertex="1">
          <mxGeometry x="560" y="530" width="210" height="20" as="geometry" />
        </mxCell>
        <mxCell id="523bSIM_VYliNhW8W_xu-48" style="edgeStyle=orthogonalEdgeStyle;rounded=0;orthogonalLoop=1;jettySize=auto;html=1;" parent="1" source="523bSIM_VYliNhW8W_xu-46" edge="1">
          <mxGeometry relative="1" as="geometry">
            <mxPoint x="280" y="285" as="targetPoint" />
          </mxGeometry>
        </mxCell>
        <mxCell id="523bSIM_VYliNhW8W_xu-46" value="Payment Gateway" style="ellipse;shape=cloud;whiteSpace=wrap;html=1;" parent="1" vertex="1">
          <mxGeometry x="50" y="240" width="180" height="90" as="geometry" />
        </mxCell>
        <mxCell id="523bSIM_VYliNhW8W_xu-53" style="edgeStyle=orthogonalEdgeStyle;rounded=0;orthogonalLoop=1;jettySize=auto;html=1;" parent="1" source="523bSIM_VYliNhW8W_xu-49" target="523bSIM_VYliNhW8W_xu-34" edge="1">
          <mxGeometry relative="1" as="geometry" />
        </mxCell>
        <mxCell id="523bSIM_VYliNhW8W_xu-49" value="" style="rounded=0;whiteSpace=wrap;html=1;" parent="1" vertex="1">
          <mxGeometry x="575" y="360" width="170" height="160" as="geometry" />
        </mxCell>
        <mxCell id="523bSIM_VYliNhW8W_xu-50" value="Agent Service" style="rounded=0;whiteSpace=wrap;html=1;" parent="1" vertex="1">
          <mxGeometry x="600" y="370" width="120" height="60" as="geometry" />
        </mxCell>
        <mxCell id="523bSIM_VYliNhW8W_xu-51" value="Agent Service" style="rounded=0;whiteSpace=wrap;html=1;" parent="1" vertex="1">
          <mxGeometry x="600" y="450" width="120" height="60" as="geometry" />
        </mxCell>
        <mxCell id="523bSIM_VYliNhW8W_xu-55" value="Analytics Service" style="rounded=0;whiteSpace=wrap;html=1;" parent="1" vertex="1">
          <mxGeometry x="1280" y="75" width="120" height="175" as="geometry" />
        </mxCell>
        <mxCell id="523bSIM_VYliNhW8W_xu-56" value="Change stream" style="text;html=1;align=center;verticalAlign=middle;resizable=0;points=[];autosize=1;" parent="1" vertex="1">
          <mxGeometry x="1140" y="120" width="100" height="20" as="geometry" />
        </mxCell>
        <mxCell id="523bSIM_VYliNhW8W_xu-58" value="Cosmo Db" style="text;html=1;align=center;verticalAlign=middle;resizable=0;points=[];autosize=1;" parent="1" vertex="1">
          <mxGeometry x="835" y="560" width="70" height="20" as="geometry" />
        </mxCell>
        <mxCell id="523bSIM_VYliNhW8W_xu-59" value="Change Streams" style="text;html=1;align=center;verticalAlign=middle;resizable=0;points=[];autosize=1;" parent="1" vertex="1">
          <mxGeometry x="815" y="400" width="110" height="20" as="geometry" />
        </mxCell>
        <mxCell id="523bSIM_VYliNhW8W_xu-66" style="edgeStyle=orthogonalEdgeStyle;rounded=0;orthogonalLoop=1;jettySize=auto;html=1;" parent="1" source="523bSIM_VYliNhW8W_xu-60" target="523bSIM_VYliNhW8W_xu-65" edge="1">
          <mxGeometry relative="1" as="geometry" />
        </mxCell>
        <mxCell id="523bSIM_VYliNhW8W_xu-60" value="" style="rounded=0;whiteSpace=wrap;html=1;" parent="1" vertex="1">
          <mxGeometry x="580" y="600" width="170" height="190" as="geometry" />
        </mxCell>
        <mxCell id="523bSIM_VYliNhW8W_xu-61" value="Authentication Service" style="rounded=0;whiteSpace=wrap;html=1;" parent="1" vertex="1">
          <mxGeometry x="610" y="620" width="120" height="60" as="geometry" />
        </mxCell>
        <mxCell id="523bSIM_VYliNhW8W_xu-62" value="Authentication Service" style="rounded=0;whiteSpace=wrap;html=1;" parent="1" vertex="1">
          <mxGeometry x="610" y="700" width="120" height="60" as="geometry" />
        </mxCell>
        <mxCell id="523bSIM_VYliNhW8W_xu-63" value="Cluster of Authentication Service" style="text;html=1;align=center;verticalAlign=middle;resizable=0;points=[];autosize=1;" parent="1" vertex="1">
          <mxGeometry x="565" y="800" width="190" height="20" as="geometry" />
        </mxCell>
        <mxCell id="523bSIM_VYliNhW8W_xu-64" value="" style="endArrow=classic;startArrow=classic;html=1;" parent="1" edge="1">
          <mxGeometry width="50" height="50" relative="1" as="geometry">
            <mxPoint x="560" y="678.57" as="sourcePoint" />
            <mxPoint x="420" y="678.57" as="targetPoint" />
          </mxGeometry>
        </mxCell>
        <mxCell id="523bSIM_VYliNhW8W_xu-65" value="Auth Db" style="shape=cylinder3;whiteSpace=wrap;html=1;boundedLbl=1;backgroundOutline=1;size=15;" parent="1" vertex="1">
          <mxGeometry x="850" y="635" width="85" height="120" as="geometry" />
        </mxCell>
        <mxCell id="523bSIM_VYliNhW8W_xu-68" value="User/ Agent Req" style="text;html=1;align=center;verticalAlign=middle;resizable=0;points=[];autosize=1;" parent="1" vertex="1">
          <mxGeometry x="435" y="640" width="100" height="20" as="geometry" />
        </mxCell>
        <mxCell id="523bSIM_VYliNhW8W_xu-75" style="edgeStyle=orthogonalEdgeStyle;rounded=0;orthogonalLoop=1;jettySize=auto;html=1;" parent="1" source="523bSIM_VYliNhW8W_xu-69" edge="1">
          <mxGeometry relative="1" as="geometry">
            <mxPoint x="840" y="970" as="targetPoint" />
          </mxGeometry>
        </mxCell>
        <mxCell id="523bSIM_VYliNhW8W_xu-69" value="" style="rounded=0;whiteSpace=wrap;html=1;" parent="1" vertex="1">
          <mxGeometry x="580" y="860" width="180" height="220" as="geometry" />
        </mxCell>
        <mxCell id="523bSIM_VYliNhW8W_xu-70" value="Payment Service" style="rounded=0;whiteSpace=wrap;html=1;" parent="1" vertex="1">
          <mxGeometry x="610" y="890" width="120" height="60" as="geometry" />
        </mxCell>
        <mxCell id="523bSIM_VYliNhW8W_xu-71" value="Payment Service" style="rounded=0;whiteSpace=wrap;html=1;" parent="1" vertex="1">
          <mxGeometry x="610" y="980" width="120" height="60" as="geometry" />
        </mxCell>
        <mxCell id="523bSIM_VYliNhW8W_xu-72" value="Cluster of Payment Service" style="text;html=1;align=center;verticalAlign=middle;resizable=0;points=[];autosize=1;" parent="1" vertex="1">
          <mxGeometry x="590" y="1090" width="160" height="20" as="geometry" />
        </mxCell>
        <mxCell id="523bSIM_VYliNhW8W_xu-73" value="" style="endArrow=classic;html=1;" parent="1" edge="1">
          <mxGeometry width="50" height="50" relative="1" as="geometry">
            <mxPoint x="420" y="930" as="sourcePoint" />
            <mxPoint x="560" y="930" as="targetPoint" />
          </mxGeometry>
        </mxCell>
        <mxCell id="SMLARcFiEDBZAlFE3PjW-1" style="edgeStyle=orthogonalEdgeStyle;rounded=0;orthogonalLoop=1;jettySize=auto;html=1;" edge="1" parent="1" source="523bSIM_VYliNhW8W_xu-74">
          <mxGeometry relative="1" as="geometry">
            <mxPoint x="1310" y="975" as="targetPoint" />
          </mxGeometry>
        </mxCell>
        <mxCell id="523bSIM_VYliNhW8W_xu-74" value="Payment Db" style="shape=cylinder3;whiteSpace=wrap;html=1;boundedLbl=1;backgroundOutline=1;size=15;" parent="1" vertex="1">
          <mxGeometry x="850" y="880" width="100" height="190" as="geometry" />
        </mxCell>
        <mxCell id="SMLARcFiEDBZAlFE3PjW-5" style="edgeStyle=orthogonalEdgeStyle;rounded=0;orthogonalLoop=1;jettySize=auto;html=1;entryX=1;entryY=0;entryDx=0;entryDy=120;entryPerimeter=0;" edge="1" parent="1" source="SMLARcFiEDBZAlFE3PjW-2" target="523bSIM_VYliNhW8W_xu-30">
          <mxGeometry relative="1" as="geometry">
            <mxPoint x="1230" y="180" as="targetPoint" />
            <Array as="points">
              <mxPoint x="1380" y="658" />
              <mxPoint x="1230" y="658" />
              <mxPoint x="1230" y="180" />
            </Array>
          </mxGeometry>
        </mxCell>
        <mxCell id="SMLARcFiEDBZAlFE3PjW-2" value="Payment Event Capture Service" style="rounded=0;whiteSpace=wrap;html=1;" vertex="1" parent="1">
          <mxGeometry x="1310" y="915" width="140" height="110" as="geometry" />
        </mxCell>
        <mxCell id="SMLARcFiEDBZAlFE3PjW-3" value="Serverless function" style="text;html=1;align=center;verticalAlign=middle;resizable=0;points=[];autosize=1;" vertex="1" parent="1">
          <mxGeometry x="1330" y="1040" width="120" height="20" as="geometry" />
        </mxCell>
        <mxCell id="SMLARcFiEDBZAlFE3PjW-6" value="Update Payment Status" style="text;html=1;align=center;verticalAlign=middle;resizable=0;points=[];autosize=1;" vertex="1" parent="1">
          <mxGeometry x="1250" y="620" width="140" height="20" as="geometry" />
        </mxCell>
        <mxCell id="SMLARcFiEDBZAlFE3PjW-7" value="Cosmo Db&lt;br&gt;" style="text;html=1;align=center;verticalAlign=middle;resizable=0;points=[];autosize=1;" vertex="1" parent="1">
          <mxGeometry x="865" y="1090" width="70" height="20" as="geometry" />
        </mxCell>
        <mxCell id="SMLARcFiEDBZAlFE3PjW-13" value="" style="endArrow=classic;startArrow=classic;html=1;" edge="1" parent="1" target="SMLARcFiEDBZAlFE3PjW-15">
          <mxGeometry width="50" height="50" relative="1" as="geometry">
            <mxPoint x="-55" y="50" as="sourcePoint" />
            <mxPoint x="240" y="-90" as="targetPoint" />
          </mxGeometry>
        </mxCell>
        <mxCell id="SMLARcFiEDBZAlFE3PjW-16" style="edgeStyle=orthogonalEdgeStyle;rounded=0;orthogonalLoop=1;jettySize=auto;html=1;" edge="1" parent="1" source="SMLARcFiEDBZAlFE3PjW-15" target="SMLARcFiEDBZAlFE3PjW-17">
          <mxGeometry relative="1" as="geometry">
            <mxPoint x="830" y="-90" as="targetPoint" />
          </mxGeometry>
        </mxCell>
        <mxCell id="SMLARcFiEDBZAlFE3PjW-15" value="Azure Cdn" style="ellipse;shape=cloud;whiteSpace=wrap;html=1;" vertex="1" parent="1">
          <mxGeometry x="130" y="-390" width="280" height="160" as="geometry" />
        </mxCell>
        <mxCell id="SMLARcFiEDBZAlFE3PjW-24" style="edgeStyle=orthogonalEdgeStyle;rounded=0;orthogonalLoop=1;jettySize=auto;html=1;entryX=0.5;entryY=0;entryDx=0;entryDy=0;" edge="1" parent="1" source="SMLARcFiEDBZAlFE3PjW-17" target="523bSIM_VYliNhW8W_xu-4">
          <mxGeometry relative="1" as="geometry">
            <mxPoint x="350" y="-170" as="targetPoint" />
            <Array as="points">
              <mxPoint x="670" y="-217" />
              <mxPoint x="580" y="-217" />
              <mxPoint x="580" y="-180" />
              <mxPoint x="350" y="-180" />
            </Array>
          </mxGeometry>
        </mxCell>
        <mxCell id="SMLARcFiEDBZAlFE3PjW-17" value="Insurance Web App" style="rounded=0;whiteSpace=wrap;html=1;" vertex="1" parent="1">
          <mxGeometry x="545" y="-355" width="250" height="90" as="geometry" />
        </mxCell>
        <mxCell id="SMLARcFiEDBZAlFE3PjW-18" value="Azure Storage" style="text;html=1;align=center;verticalAlign=middle;resizable=0;points=[];autosize=1;" vertex="1" parent="1">
          <mxGeometry x="855" y="-20" width="90" height="20" as="geometry" />
        </mxCell>
        <mxCell id="SMLARcFiEDBZAlFE3PjW-27" style="edgeStyle=orthogonalEdgeStyle;rounded=0;orthogonalLoop=1;jettySize=auto;html=1;" edge="1" parent="1" source="SMLARcFiEDBZAlFE3PjW-25">
          <mxGeometry relative="1" as="geometry">
            <mxPoint x="990" y="-120" as="targetPoint" />
          </mxGeometry>
        </mxCell>
        <mxCell id="SMLARcFiEDBZAlFE3PjW-25" value="" style="rounded=0;whiteSpace=wrap;html=1;" vertex="1" parent="1">
          <mxGeometry x="590" y="-180" width="200" height="160" as="geometry" />
        </mxCell>
        <mxCell id="SMLARcFiEDBZAlFE3PjW-26" value="Insurance Catalog&amp;nbsp; Cluster" style="text;html=1;align=center;verticalAlign=middle;resizable=0;points=[];autosize=1;" vertex="1" parent="1">
          <mxGeometry x="605" y="-10" width="160" height="20" as="geometry" />
        </mxCell>
        <mxCell id="SMLARcFiEDBZAlFE3PjW-28" value="Insurance Catalog" style="shape=cylinder3;whiteSpace=wrap;html=1;boundedLbl=1;backgroundOutline=1;size=15;" vertex="1" parent="1">
          <mxGeometry x="1000" y="-210" width="150" height="190" as="geometry" />
        </mxCell>
        <mxCell id="SMLARcFiEDBZAlFE3PjW-29" value="" style="endArrow=classic;startArrow=classic;html=1;entryX=0.511;entryY=0.983;entryDx=0;entryDy=0;entryPerimeter=0;" edge="1" parent="1" target="SMLARcFiEDBZAlFE3PjW-15">
          <mxGeometry width="50" height="50" relative="1" as="geometry">
            <mxPoint x="-90" y="330" as="sourcePoint" />
            <mxPoint x="-40" y="280" as="targetPoint" />
          </mxGeometry>
        </mxCell>
        <mxCell id="SMLARcFiEDBZAlFE3PjW-30" value="" style="endArrow=classic;startArrow=classic;html=1;" edge="1" parent="1">
          <mxGeometry width="50" height="50" relative="1" as="geometry">
            <mxPoint x="429" y="-90" as="sourcePoint" />
            <mxPoint x="565" y="-90" as="targetPoint" />
          </mxGeometry>
        </mxCell>
        <mxCell id="SMLARcFiEDBZAlFE3PjW-31" value="Insurance Catalog Service" style="rounded=0;whiteSpace=wrap;html=1;" vertex="1" parent="1">
          <mxGeometry x="635" y="-160" width="120" height="60" as="geometry" />
        </mxCell>
        <mxCell id="SMLARcFiEDBZAlFE3PjW-32" value="Insurance Catalog Service" style="rounded=0;whiteSpace=wrap;html=1;" vertex="1" parent="1">
          <mxGeometry x="635" y="-90" width="120" height="60" as="geometry" />
        </mxCell>
        <mxCell id="SMLARcFiEDBZAlFE3PjW-33" value="" style="endArrow=classic;html=1;" edge="1" parent="1" target="523bSIM_VYliNhW8W_xu-29">
          <mxGeometry width="50" height="50" relative="1" as="geometry">
            <mxPoint x="765" y="299.29" as="sourcePoint" />
            <mxPoint x="625" y="299.29" as="targetPoint" />
            <Array as="points">
              <mxPoint x="695" y="299" />
            </Array>
          </mxGeometry>
        </mxCell>
        <mxCell id="SMLARcFiEDBZAlFE3PjW-34" value="Agent Event Capture Service" style="rounded=0;whiteSpace=wrap;html=1;" vertex="1" parent="1">
          <mxGeometry x="770" y="270" width="120" height="60" as="geometry" />
        </mxCell>
        <mxCell id="SMLARcFiEDBZAlFE3PjW-38" value="Serverless function" style="text;html=1;align=center;verticalAlign=middle;resizable=0;points=[];autosize=1;" vertex="1" parent="1">
          <mxGeometry x="770" y="330" width="120" height="20" as="geometry" />
        </mxCell>
      </root>
    </mxGraphModel>
  </diagram>
</mxfile>
